<svg width="800" height="578" viewBox="0 0 800 578" fill="none" xmlns="http://www.w3.org/2000/svg">
<path d="M0 90.3113V177.889H125.067L0 90.3113ZM103.644 577.889H288.889V448.178L103.644 577.889ZM511.111 448.2V577.889H696.333L511.111 448.2ZM0 400.111V487.689L125.111 400.111H0ZM696.378 0.111328H511.111V129.822L696.378 0.111328ZM800 487.711V400.111H674.867L800 487.711ZM800 177.889V90.3113L674.911 177.889H800ZM288.889 0.111328H103.644L288.889 129.822V0.111328Z" fill="#00247D"/>
<path d="M558.667 400.111L774.489 551.244C785.029 540.386 792.604 527.003 796.489 512.378L636.156 400.111H558.667ZM288.889 400.111H241.311L25.5111 551.222C37.0889 563 51.9333 571.422 68.5778 575.333L288.889 421.066V400.111ZM511.111 177.889H558.689L774.489 26.7776C762.712 14.8282 747.786 6.46709 731.444 2.6665L511.111 156.933V177.889ZM241.311 177.889L25.5111 26.7776C14.9767 37.6437 7.39588 51.023 3.48889 65.6443L163.822 177.889H241.311Z" fill="#CF1B2B"/>
<path d="M800 355.667H466.667V577.889H511.111V448.2L696.333 577.889H711.111C722.917 577.891 734.604 575.535 745.488 570.96C756.371 566.384 766.231 559.682 774.489 551.245L558.667 400.111H636.156L796.489 512.378C798.555 504.889 800 497.134 800 489V487.711L674.867 400.111H800V355.667ZM0 355.667V400.111H125.111L0 487.689V489C0 513.245 9.75556 535.178 25.5111 551.222L241.311 400.111H288.889V421.067L68.5778 575.311C75.1111 576.867 81.8667 577.889 88.8889 577.889H103.644L288.889 448.178V577.889H333.333V355.667H0ZM800 89.0002C800.013 65.7109 790.847 43.3547 774.489 26.778L558.689 177.889H511.111V156.934L731.444 2.66689C724.788 1.03416 717.965 0.176618 711.111 0.111337H696.378L511.111 129.822V0.111337H466.667V222.334H800V177.889H674.911L800 90.3113V89.0002ZM288.889 0.111337V129.822L103.644 0.111337H88.8889C77.0805 0.106191 65.3903 2.46274 54.5062 7.04233C43.622 11.6219 33.7636 18.3321 25.5111 26.778L241.311 177.889H163.822L3.48889 65.6447C1.284 73.2382 0.11052 81.0938 0 89.0002L0 90.3113L125.067 177.889H0V222.334H333.333V0.111337H288.889Z" fill="#EEEEEE"/>
<path d="M466.667 222.334V0.111328H333.333V222.334H0V355.667H333.333V577.889H466.667V355.667H800V222.334H466.667Z" fill="#CF1B2B"/>
</svg>
